# xmcd
#
# Track frame offsets:
#	150
#	15745
#	35929
#	53701
#	72468
#	85177
#	101743
#	124056
#	142499
#	158485
#	173593
#	193857
#	215821
#	231858
#	246473
#	262711
#
# Disc length: 3716 seconds
#
# Revision: 1
# Processed by: cddbd v1.5.2PL0 Copyright (c) Steve Scherf et al.
# Submitted via: audiograbber 1.83.01
#
DISCID=ee0e8210
DTITLE=Various Artist - Hits 2008 [CD1)
DYEAR=2007
DGENRE=Pop
TTITLE0=Sheryfa Luna - Quelque part
TTITLE1=Rihanna - Don't Stop The Music
TTITLE2=Mika - Love Today
TTITLE3=Tokio Hotel - Spring nicht
TTITLE4=Yves Larock - Rise Up
TTITLE5=Passymal - Pas si mal
TTITLE6=Akon - Sorry, Blame It On Me
TTITLE7=Will.I.Am - I Got It From My Mama
TTITLE8=Superbus - Travel The World
TTITLE9=Timbaland - The Way I Are
TTITLE10=Fergie - Big Girls Don't Cry
TTITLE11=Gwen Stefani - 4 In The Morning
TTITLE12=Grégory Lemarchal - Le lien
TTITLE13=Ora Mate - Kamaté
TTITLE14=Koxie - Garçon
TTITLE15=John Dahlbäck - Blink
EXTD=
EXTT0=
EXTT1=
EXTT2=
EXTT3=
EXTT4=
EXTT5=
EXTT6=
EXTT7=
EXTT8=
EXTT9=
EXTT10=
EXTT11=
EXTT12=
EXTT13=
EXTT14=
EXTT15=
PLAYORDER=
